<?xml version="1.0" standalone="no"?>
<!DOCTYPE svg PUBLIC "-//W3C//DTD SVG 20010904//EN"
 "http://www.w3.org/TR/2001/REC-SVG-20010904/DTD/svg10.dtd">
<svg version="1.0" xmlns="http://www.w3.org/2000/svg"
 width="16.000000pt" height="16.000000pt" viewBox="0 0 16.000000 16.000000"
 preserveAspectRatio="xMidYMid meet">
<metadata>
Created by potrace 1.11, written by Peter Selinger 2001-2013
</metadata>
<g transform="translate(0.000000,16.000000) scale(0.004805,-0.004805)"
fill="#000000" stroke="none">
<path d="M1428 3205 c-2 -2 -28 -5 -58 -9 -107 -11 -214 -36 -340 -80 -41 -15
-79 -28 -85 -29 -16 -5 -156 -76 -195 -100 -32 -19 -138 -95 -150 -107 -3 -3
-29 -24 -57 -48 -29 -24 -77 -68 -105 -99 -29 -31 -58 -61 -64 -67 -23 -24
-122 -164 -156 -221 -68 -112 -167 -358 -182 -450 -2 -16 -7 -46 -10 -65 -28
-161 -28 -393 -1 -530 3 -14 7 -34 9 -45 21 -102 55 -211 93 -297 l25 -57 -36
-36 c-43 -42 -50 -86 -26 -144 21 -52 95 -83 149 -63 18 6 29 3 51 -17 15 -14
34 -31 41 -37 8 -6 41 -41 73 -78 229 -259 591 -448 943 -493 71 -9 320 -10
388 -1 634 80 1155 541 1308 1158 25 99 38 174 38 212 0 16 23 22 126 32 94 9
146 96 104 175 -6 11 -11 33 -11 50 0 16 -5 41 -11 55 -13 29 -67 58 -95 51
-10 -2 -28 -6 -39 -9 -23 -6 -83 57 -90 94 -43 222 -142 449 -273 625 -71 95
-220 252 -287 301 -22 16 -42 32 -45 35 -3 3 -43 30 -90 59 -187 118 -368 184
-615 225 -38 7 -322 15 -327 10z m-420 -2788 c11 -13 43 -99 38 -104 -1 -1
-11 -4 -22 -6 -10 -2 -45 -9 -77 -17 -31 -7 -60 -11 -63 -8 -3 3 -5 30 -6 59
0 43 4 57 22 71 26 21 93 24 108 5z"/>
</g>
</svg>
