<?xml version="1.0" standalone="no"?>
<!DOCTYPE svg PUBLIC "-//W3C//DTD SVG 20010904//EN"
 "http://www.w3.org/TR/2001/REC-SVG-20010904/DTD/svg10.dtd">
<svg version="1.0" xmlns="http://www.w3.org/2000/svg"
 width="512.000000pt" height="512.000000pt" viewBox="0 0 512.000000 512.000000"
 preserveAspectRatio="xMidYMid meet">
<metadata>
Created by potrace 1.11, written by Peter Selinger 2001-2013
</metadata>
<g transform="translate(0.000000,512.000000) scale(0.100000,-0.100000)"
fill="#000000" stroke="none">
<path d="M2390 4907 c-3 -2 -36 -7 -75 -10 -78 -7 -229 -32 -290 -48 -22 -6
-51 -13 -64 -15 -48 -9 -216 -67 -319 -110 -518 -217 -968 -647 -1202 -1148
-45 -95 -119 -278 -126 -309 -3 -12 -7 -33 -10 -46 -3 -14 -8 -29 -12 -35 -3
-6 -7 -15 -9 -21 -1 -5 -5 -21 -8 -35 -6 -26 -12 -53 -19 -92 -2 -13 -7 -36
-11 -53 -39 -180 -49 -534 -20 -725 4 -25 8 -56 10 -70 4 -23 7 -39 21 -108 3
-15 7 -40 10 -57 2 -16 7 -37 11 -45 3 -8 8 -24 10 -35 2 -11 6 -27 10 -35 3
-8 7 -19 8 -25 1 -5 3 -13 5 -17 1 -5 4 -12 5 -18 1 -5 3 -11 5 -12 1 -2 3
-10 5 -18 2 -8 9 -28 16 -45 7 -16 13 -33 14 -37 2 -5 4 -10 5 -13 1 -3 3 -8
5 -12 1 -5 7 -21 14 -38 6 -16 17 -43 23 -60 18 -44 107 -216 129 -247 11 -14
19 -29 19 -32 0 -6 91 -145 112 -171 135 -170 300 -341 413 -431 27 -21 56
-45 64 -52 66 -62 451 -284 515 -296 6 -1 29 -10 51 -20 50 -21 155 -58 175
-60 9 -1 20 -5 26 -8 6 -4 21 -9 35 -12 13 -3 35 -8 49 -11 14 -3 34 -8 45 -9
11 -2 27 -6 35 -9 8 -3 33 -9 55 -13 22 -3 51 -8 65 -10 29 -5 87 -11 185 -21
39 -4 122 -7 185 -7 100 0 147 3 295 18 39 4 103 14 135 21 14 3 52 11 85 17
33 6 66 15 73 21 7 5 15 7 19 4 3 -3 22 1 42 9 20 8 38 15 41 15 7 -1 130 39
165 54 17 7 46 20 65 28 19 9 38 16 43 16 12 1 187 95 257 137 177 109 317
222 471 380 111 115 189 207 189 222 0 6 4 12 8 14 10 4 93 121 116 163 9 17
28 48 41 70 41 65 119 230 124 260 1 6 9 20 17 32 8 13 12 23 9 23 -3 0 4 18
15 40 11 22 18 40 15 40 -3 0 -1 9 5 21 6 11 14 30 16 42 3 12 6 27 7 32 2 6
5 15 8 20 6 10 17 49 25 90 4 19 8 40 21 95 3 14 7 36 8 50 2 14 4 25 5 25 3
0 4 8 15 90 23 174 23 433 0 598 -3 20 -7 52 -9 70 -3 17 -7 43 -10 57 -4 14
-8 36 -11 50 -3 14 -7 36 -10 50 -3 14 -8 38 -11 54 -2 16 -7 33 -10 38 -3 4
-7 18 -10 30 -9 38 -12 53 -14 56 -2 1 -4 7 -5 12 -1 6 -4 12 -5 15 -1 3 -3 8
-4 13 -6 34 -129 311 -177 398 -58 103 -171 272 -241 359 -63 78 -294 302
-373 362 -350 264 -699 408 -1160 478 -51 8 -448 19 -455 12z"/>
</g>
</svg>
